<?xml version="1.0" standalone="no"?><!DOCTYPE svg PUBLIC "-//W3C//DTD SVG 1.1//EN" "http://www.w3.org/Graphics/SVG/1.1/DTD/svg11.dtd"><svg t="1643375523827" class="icon" viewBox="0 0 1024 1024" version="1.1" xmlns="http://www.w3.org/2000/svg" p-id="1388" xmlns:xlink="http://www.w3.org/1999/xlink" width="200" height="200"><defs><style type="text/css"></style></defs><path d="M0 0h1024v1024H0z" fill="#FFFFFF" p-id="1389"></path><path d="M288 96a192 192 0 1 0 0 384H448a32 32 0 0 0 32-32v-160a192 192 0 0 0-192-192zM448 544h-160a192 192 0 1 0 192 192V576a32 32 0 0 0-32-32zM736 96a192 192 0 0 0-192 192V448a32 32 0 0 0 32 32h160a192 192 0 0 0 0-384z" fill="#111111" p-id="1390"></path><path d="M736 544H576a32 32 0 0 0-32 32v160a192 192 0 1 0 192-192z" fill="#000000" p-id="1391"></path></svg>